<?xml version="1.0" standalone="no"?>
<!DOCTYPE svg PUBLIC "-//W3C//DTD SVG 20010904//EN"
 "http://www.w3.org/TR/2001/REC-SVG-20010904/DTD/svg10.dtd">
<svg version="1.0" xmlns="http://www.w3.org/2000/svg"
 width="634.000000pt" height="394.000000pt" viewBox="0 0 634.000000 394.000000"
 preserveAspectRatio="xMidYMid meet">

<g transform="translate(0.000000,394.000000) scale(0.100000,-0.100000)"
fill="#000000" stroke="none">
<path d="M860 1956 l0 -1416 2255 0 2255 0 0 1410 0 1410 -2209 0 c-1214 0
-2229 3 -2255 6 l-46 7 0 -1417z m4410 -6 l0 -1300 -2150 0 -2150 0 0 1300 0
1300 2150 0 2150 0 0 -1300z"/>
<path d="M1738 2580 c-45 -13 -105 -51 -125 -79 -33 -44 -45 -92 -53 -208 -6
-91 -12 -122 -34 -167 -31 -63 -89 -118 -159 -151 l-48 -23 54 -25 c69 -31
123 -86 155 -155 20 -44 27 -79 32 -166 8 -116 24 -173 63 -214 46 -49 143
-82 245 -82 l62 0 0 60 0 60 -61 0 c-125 0 -159 40 -170 202 -9 139 -29 198
-88 258 -25 26 -53 50 -61 53 -12 4 -8 11 15 29 93 71 124 142 134 306 6 89
11 118 27 140 30 41 81 62 147 62 l57 0 0 55 0 55 -82 -1 c-46 0 -95 -4 -110
-9z"/>
<path d="M4300 2535 l0 -55 58 0 c65 0 116 -21 145 -62 15 -20 22 -53 29 -135
12 -158 30 -206 101 -277 53 -53 57 -60 40 -69 -39 -21 -92 -88 -112 -142 -13
-36 -23 -92 -27 -158 -10 -166 -43 -207 -166 -207 l-68 0 0 -60 0 -60 60 0
c91 0 182 26 228 66 58 50 73 90 83 227 7 93 15 130 34 172 30 63 98 129 163
158 l47 20 -35 15 c-54 22 -124 77 -152 119 -38 58 -48 98 -58 224 -10 133
-28 181 -84 224 -49 37 -116 55 -208 55 l-78 0 0 -55z"/>
<path d="M2443 2385 c-147 -32 -264 -119 -325 -242 -29 -59 -33 -78 -36 -167
-3 -84 0 -112 18 -165 67 -200 251 -310 516 -311 109 0 175 11 269 45 113 41
113 42 68 114 -26 42 -43 60 -53 57 -8 -3 -47 -17 -87 -31 -176 -62 -373 -33
-475 70 -53 54 -72 99 -76 186 -5 93 20 161 80 215 105 95 296 119 473 59 39
-13 71 -23 71 -22 28 36 74 121 67 127 -15 16 -116 51 -185 65 -85 18 -242 18
-325 0z"/>
<path d="M3490 2384 c-141 -37 -239 -113 -297 -231 -35 -70 -38 -84 -41 -179
-6 -152 24 -232 124 -336 53 -55 158 -110 242 -127 114 -24 293 -7 374 35 29
15 31 15 57 -10 26 -25 32 -26 137 -26 l109 1 -73 67 c-40 37 -72 70 -72 74 0
4 14 27 30 50 50 71 72 149 71 253 0 98 -15 154 -65 239 -52 88 -175 170 -294
195 -73 15 -236 13 -302 -5z m302 -160 c58 -19 131 -83 161 -138 32 -60 31
-201 -2 -268 -13 -27 -28 -48 -33 -48 -6 0 -44 32 -86 71 l-75 70 -104 -2
c-57 -1 -103 -5 -102 -8 0 -3 54 -53 119 -111 65 -58 119 -108 119 -112 1 -9
-91 -28 -134 -28 -46 0 -134 19 -170 37 -100 50 -155 133 -163 243 -11 159 87
281 248 311 60 11 165 3 222 -17z"/>
</g>
</svg>
